<?xml version="1.0" encoding="UTF-8"?>
<svg xmlns="http://www.w3.org/2000/svg" viewBox="0 0 200 200">
  <defs>
    <style>
      .st0 { fill: #fffcf8; }
      .st1 { fill: #bfca89; }
      .st2 { fill: #f6ab66; }
    </style>
  </defs>
  <rect class="st0" x="10.9" y="10.9" width="178.2" height="178.2" rx="41.5" ry="41.5"/>
  <g>
    <g>
      <rect class="st1" x="30.6" y="72.8" width="46.7" height="84.8" rx="7.4" ry="7.4"/>
      <path class="st1" d="M126.5,130.2c-8.7,0-17.3-2.2-24.9-6.6-3.3-1.9-5.7-5.1-6.7-8.8-1-3.7-.5-7.6,1.4-11l1.5-2.7h0s25.1-43.5,25.1-43.5c0,0,0,0,0,0l8.3-14.4c.2-.3.3-.5.5-.8h-37.9c-4.8,0-8.6,3.9-8.6,8.6v97.9c0,4.8,3.9,8.6,8.6,8.6h29.4c4.8,0,8.6-3.9,8.6-8.6v-19.2c-1.8.2-3.6.4-5.4.4Z"/>
    </g>
    <path class="st2" d="M163.6,102.4h0c11.9-20.7,4.8-47.1-15.8-59h0c-1.3-.7-2.7-1.1-4.1-1.1-2.8,0-5.5,1.5-7.1,4.1l-8.3,14.4c-3.1,5.4.8,12.1,7,12.1h20.2c1.3,0,2.4,1.1,2.4,2.4,0,1.3-1.1,2.4-2.4,2.4h-20.2s0,0,0,0c-6.2,0-10,6.7-6.9,12.1l10.1,17.5c.7,1.2.3,2.6-.9,3.3-.4.2-.8.3-1.2.3-.4,0-.9-.1-1.2-.3-.4-.2-.7-.5-.9-.9l-10.1-17.5c-1.6-2.7-4.3-4-7-4-2.7,0-5.4,1.4-6.9,4l-8.5,14.8c-2.3,3.9-.9,8.9,3,11.2,6.8,3.9,14.3,5.8,21.7,5.8,14.8,0,29.2-7.8,37.2-21.6Z"/>
  </g>
</svg>
